<?xml version="1.0" standalone="no"?>
<!DOCTYPE svg PUBLIC "-//W3C//DTD SVG 20010904//EN"
 "http://www.w3.org/TR/2001/REC-SVG-20010904/DTD/svg10.dtd">
<svg version="1.0" xmlns="http://www.w3.org/2000/svg"
 width="650.000000pt" height="900.000000pt" viewBox="0 0 650.000000 900.000000"
 preserveAspectRatio="xMidYMid meet">

<g transform="translate(0.000000,900.000000) scale(0.100000,-0.100000)"
fill="#000000" stroke="none">
<path d="M1952 6395 c-37 -47 -47 -94 -47 -220 0 -108 2 -125 25 -169 44 -87
76 -87 119 -2 46 92 39 301 -12 378 -29 42 -59 47 -85 13z"/>
<path d="M4412 6395 c-37 -47 -47 -94 -47 -220 0 -108 2 -125 25 -169 44 -87
76 -87 119 -2 46 92 39 301 -12 378 -29 42 -59 47 -85 13z"/>
<path d="M540 6041 c-5 -11 -10 -65 -10 -120 0 -121 -3 -131 -43 -131 -65 0
-152 -63 -191 -138 -25 -49 -20 -128 12 -192 35 -69 93 -115 165 -130 l54 -11
7 -52 c3 -29 6 -78 6 -109 0 -31 4 -59 9 -62 31 -20 60 113 62 283 l0 86 15
-55 c8 -30 21 -62 29 -70 13 -12 15 -7 15 43 l0 57 590 0 c325 0 590 3 590 6
0 4 -51 78 -112 165 l-113 159 -492 0 -492 0 -12 -22 c-7 -12 -15 -70 -19
-128 -6 -84 -7 -54 -8 145 -2 209 -5 254 -18 273 -19 27 -30 28 -44 3z m-49
-430 c17 -18 29 -40 29 -56 0 -35 -50 -85 -85 -85 -35 0 -85 50 -85 85 0 35
50 85 85 85 16 0 38 -12 56 -29z"/>
<path d="M5856 6038 c-13 -19 -16 -64 -18 -273 -1 -199 -2 -229 -8 -145 -4 58
-12 116 -19 128 l-12 22 -492 0 -492 0 -112 -159 c-62 -87 -113 -161 -113
-165 0 -3 266 -6 590 -6 l590 0 0 -57 c0 -50 2 -55 15 -43 8 8 21 40 29 70
l15 55 0 -86 c2 -167 31 -303 61 -284 14 8 24 919 11 943 -15 28 -26 28 -45 0z"/>
<path d="M2752 5830 c-12 -12 -22 -30 -22 -40 0 -20 10 -20 490 -20 480 0 490
0 490 20 0 29 -39 60 -75 60 -33 0 -75 -31 -75 -55 0 -11 -57 -13 -340 -13
-283 0 -340 2 -340 13 0 24 -42 55 -75 55 -18 0 -41 -9 -53 -20z"/>
<path d="M1972 5628 c-7 -7 -12 -24 -12 -38 0 -33 17 -50 50 -50 33 0 50 17
50 50 0 33 -17 50 -50 50 -14 0 -31 -5 -38 -12z"/>
<path d="M3182 5628 c-7 -7 -12 -24 -12 -38 0 -14 5 -31 12 -38 7 -7 24 -12
38 -12 14 0 31 5 38 12 7 7 12 24 12 38 0 14 -5 31 -12 38 -7 7 -24 12 -38 12
-14 0 -31 -5 -38 -12z"/>
<path d="M4392 5628 c-7 -7 -12 -24 -12 -38 0 -14 5 -31 12 -38 7 -7 24 -12
38 -12 14 0 31 5 38 12 7 7 12 24 12 38 0 14 -5 31 -12 38 -7 7 -24 12 -38 12
-14 0 -31 -5 -38 -12z"/>
<path d="M2510 5364 c-692 -26 -1020 -50 -1270 -90 -52 -9 -105 -22 -117 -30
-32 -20 -46 -76 -41 -168 5 -93 41 -186 79 -207 23 -12 305 -101 994 -314
l381 -117 32 -186 c62 -361 232 -1407 232 -1428 0 -14 -94 -99 -332 -299 -183
-153 -378 -318 -433 -366 -55 -49 -183 -157 -285 -241 -276 -229 -300 -254
-342 -345 -29 -64 -37 -95 -43 -168 -7 -101 0 -102 35 -5 61 170 122 242 264
310 88 42 140 55 258 66 l77 7 303 244 c287 232 341 280 397 353 30 39 100 75
176 89 77 14 613 14 690 0 76 -14 146 -50 176 -89 56 -73 110 -121 397 -353
l303 -244 77 -7 c118 -11 170 -24 258 -66 142 -68 203 -140 264 -310 35 -97
42 -96 35 5 -6 73 -14 104 -43 168 -42 91 -66 116 -342 345 -102 84 -230 192
-285 241 -55 48 -250 213 -432 366 -239 200 -333 285 -333 299 0 21 170 1067
232 1428 l32 186 381 117 c689 213 971 302 994 314 83 45 111 329 38 375 -55
36 -447 77 -1012 107 -187 10 -1607 20 -1795 13z"/>
<path d="M906 3277 c-127 -129 -219 -277 -173 -277 39 0 223 204 272 301 52
102 15 94 -99 -24z"/>
<path d="M5410 3360 c0 -64 244 -360 297 -360 46 0 -46 148 -173 277 -81 84
-124 112 -124 83z"/>
<path d="M1028 3165 c-55 -43 -136 -137 -194 -225 -72 -110 -67 -139 13 -81
76 55 228 252 239 311 8 39 -3 38 -58 -5z"/>
<path d="M5354 3170 c17 -85 237 -340 293 -340 49 0 -127 251 -235 335 -55 43
-66 44 -58 5z"/>
<path d="M1099 2998 c-91 -70 -249 -278 -249 -329 0 -18 2 -18 28 -5 34 18
167 155 209 216 48 70 76 131 65 142 -6 6 -26 -4 -53 -24z"/>
<path d="M5285 3020 c-7 -11 25 -76 68 -140 42 -61 175 -198 209 -216 26 -14
28 -13 28 6 0 76 -277 395 -305 350z"/>
<path d="M1785 1316 c-37 -17 -80 -62 -94 -99 -17 -45 -13 -124 9 -167 54
-105 203 -121 273 -29 63 84 55 190 -20 261 -50 48 -110 60 -168 34z m118 -56
c87 -68 22 -216 -86 -196 -91 17 -118 138 -43 198 30 25 97 23 129 -2z"/>
<path d="M1802 1208 c-20 -20 -15 -66 9 -78 26 -14 69 11 69 40 0 39 -51 65
-78 38z"/>
<path d="M4540 1319 c-32 -13 -78 -56 -94 -89 -34 -66 -26 -147 21 -209 70
-92 219 -76 273 29 22 43 26 122 9 167 -31 84 -131 133 -209 102z m126 -57
c75 -60 48 -181 -43 -198 -108 -20 -173 128 -86 196 32 25 99 27 129 2z"/>
<path d="M4576 1204 c-23 -23 -20 -51 8 -69 33 -22 66 -5 66 33 0 49 -42 69
-74 36z"/>
<path d="M3040 1075 c-19 -14 -42 -25 -52 -25 -17 0 -18 -16 -18 -225 0 -208
1 -225 18 -225 9 0 34 -11 54 -25 35 -24 44 -25 178 -25 134 0 143 1 178 25
20 14 45 25 54 25 17 0 18 17 18 225 0 208 -1 225 -18 225 -9 0 -34 11 -54 25
-35 24 -43 25 -180 25 -135 -1 -145 -2 -178 -25z"/>
</g>
</svg>
